<svg fill="none" height="76" viewBox="0 0 67 76" width="67" xmlns="http://www.w3.org/2000/svg"><path d="m41.1194 71.2153c.5623-.3281 1.0075-1.1013 1.0075-1.7339v-8.2239c0-.6326-.4452-1.4292-1.0075-1.7338l-7.1227-4.1002c-.5623-.328-1.4526-.328-2.0149 0l-7.0759 4.1002c-.5623.3281-1.0075 1.1012-1.0075 1.7338v8.2239c0 .6326.4452 1.4293 1.0075 1.7339l7.1227 4.1002c.5623.328 1.4527.328 2.015 0z" fill="#333"/><path d="m17.2444 45.7235-4.9437-2.8584c-.8435-.4686-1.4292-1.359-1.4292-2.3899v-5.3888c0-1.031.5623-1.9213 1.4292-2.3899l4.9437-2.8584c.5623-.3281 1.0075-1.1012 1.0075-1.7339v-8.2238c0-.6327-.4452-1.4293-1.0075-1.7339l-7.1227-4.1002c-.5623-.328-1.45264-.328-2.01496 0l-7.09925 4.1002c-.562322.3281-1.00749 1.1012-1.00749 1.7339v8.2238c0 .6327.445168 1.4058 1.00749 1.7339l4.9437 2.8584c.84348.4686 1.42923 1.3589 1.42923 2.3899v5.3888c0 1.0309-.56232 1.9213-1.42923 2.3899l-4.9437 2.8584c-.562322.328-1.00749 1.1012-1.00749 1.7338v8.2239c0 .6326.445168 1.4293 1.00749 1.7338l7.12268 4.1003c.56232.328 1.45266.328 2.01493 0l7.0993-4.1003c.5623-.328 1.0075-1.1012 1.0075-1.7338v-8.2239c0-.6326-.4686-1.4058-1.0075-1.7338z" fill="#333"/><path d="m9.11423 25.1521c0-.6326-.44517-1.4292-1.00749-1.7338l-7.09925-4.1002c-.562322-.328-1.00749-.0703-1.00749.5623v8.2239c0 .6326.445168 1.4292 1.00749 1.7338l7.12268 4.1002c.56232.3281 1.00749.0469 1.00749-.5857z" fill="gray"/><path d="m18.2285 28.1041c0 .6326-.4452 1.4292-1.0075 1.7338l-7.1227 4.1003c-.56231.328-1.00748.0468-1.00748-.5858v-8.2239c0-.6326.44517-1.4292 1.00748-1.7338l7.1227-4.1002c.5623-.328 1.0075-.0469 1.0075.5857z" fill="#000"/><path d="m9.11423 52.7291c0-.6326-.44517-1.4292-1.00749-1.7338l-7.09925-4.1002c-.562322-.3281-1.00749-.0469-1.00749.5857v8.2239c0 .6326.445168 1.4292 1.00749 1.7338l7.12268 4.1002c.56232.3281 1.00749.0469 1.00749-.5857z" fill="gray"/><path d="m18.2285 55.6813c0 .6326-.4452 1.4292-1.0075 1.7338l-7.1227 4.1002c-.56231.328-1.00748.0469-1.00748-.5857v-8.2005c0-.6326.44517-1.4292 1.00748-1.7338l7.1227-4.1002c.5623-.3281 1.0075-.0469 1.0075.5857z" fill="#000"/><path d="m66.0253 28.1042v-8.2238c0-.6327-.4452-1.4293-1.0075-1.7339l-7.1227-4.1002c-.5623-.328-1.4526-.328-2.0149 0l-7.1227 4.1002c-.5623.3281-1.0075 1.1012-1.0075 1.7339v8.2238c0 .6327.4452 1.4058 1.0075 1.7339l4.9437 2.8584c.8435.4686 1.4292 1.3589 1.4292 2.3899v5.3888c0 1.0309-.5623 1.9213-1.4292 2.3899l-4.9437 2.8584c-.5623.328-1.0075 1.1012-1.0075 1.7338v8.2239c0 .6326.4452 1.4293 1.0075 1.7338l7.1227 4.1003c.5623.328 1.4526.328 2.0149 0l7.1227-4.1003c.5623-.328 1.0075-1.1012 1.0075-1.7338v-8.2239c0-.6326-.4452-1.4292-1.0075-1.7338l-4.9437-2.8584c-.8435-.4686-1.4292-1.359-1.4292-2.3899v-5.3888c0-1.031.5623-1.9213 1.4292-2.3899l4.9437-2.8584c.5623-.3281 1.0075-1.1012 1.0075-1.7339z" fill="#333"/><path d="m56.9111 25.152c0-.6326-.4452-1.4293-1.0075-1.7339l-7.1227-4.1002c-.5623-.328-1.0075-.0468-1.0075.5858v8.2239c0 .6326.4452 1.4292 1.0075 1.7338l7.1227 4.1002c.5623.328 1.0075.0469 1.0075-.5857z" fill="gray"/><path d="m66.0254 28.1041c0 .6326-.4452 1.4292-1.0075 1.7338l-7.1227 4.1003c-.5623.328-1.0075.0468-1.0075-.5858v-8.2239c0-.6326.4452-1.4292 1.0075-1.7338l7.1227-4.1002c.5623-.328 1.0075-.0469 1.0075.5857z" fill="#000"/><path d="m56.9111 52.7291c0-.6326-.4452-1.4292-1.0075-1.7338l-7.1227-4.1002c-.5623-.3281-1.0075-.0469-1.0075.5857v8.2239c0 .6326.4452 1.4292 1.0075 1.7338l7.1227 4.1002c.5623.3281 1.0075.0469 1.0075-.5857z" fill="gray"/><path d="m66.0254 55.6813c0 .6326-.4452 1.4292-1.0075 1.7338l-7.1227 4.1002c-.5623.328-1.0075.0469-1.0075-.5857v-8.2005c0-.6326.4452-1.4292 1.0075-1.7338l7.1227-4.1002c.5623-.3281 1.0075-.0469 1.0075.5857z" fill="#000"/><path d="m33.0127 66.5292c0-.6327-.4452-1.4293-1.0075-1.7339l-7.0993-4.1002c-.5623-.328-1.0075-.0468-1.0075.5858v8.2239c0 .6326.4452 1.4292 1.0075 1.7338l7.1227 4.1002c.5623.328 1.0075.0469 1.0075-.5857z" fill="gray"/><path d="m42.1269 69.4813c0 .6326-.4452 1.4292-1.0075 1.7338l-7.1227 4.1003c-.5623.328-1.0074.0468-1.0074-.5858v-8.2239c0-.6326.4451-1.4292 1.0074-1.7338l7.1227-4.1002c.5623-.328 1.0075-.0469 1.0075.5857z" fill="#000"/><path d="m42.1269 14.304v-8.20051c0-.63261-.4452-1.42923-1.0075-1.73381l-7.0993-4.123666c-.5623-.3280186-1.4526-.3280186-2.0149 0l-7.1227 4.100236c-.5623.32801-1.0075 1.1012-1.0075 1.73381v8.22394c0 .6326.4452 1.4057 1.0075 1.7338l4.9437 2.8584c.8435.4686 1.4292 1.3589 1.4292 2.3899v5.3888c0 1.031-.5623 1.9213-1.4292 2.3899l-4.9437 2.8584c-.5623.3281-1.0075 1.1012-1.0075 1.7338v8.2239c0 .6326.4452 1.4293 1.0075 1.7339l7.1227 4.1002c.5623.328 1.4526.328 2.0149 0l7.1227-4.1002c.5624-.3281 1.0075-1.1013 1.0075-1.7339v-8.2239c0-.6326-.4451-1.4292-1.0075-1.7338l-4.9437-2.8584c-.8435-.4686-1.4292-1.3589-1.4292-2.3899v-5.3888c0-1.031.5623-1.9213 1.4292-2.3899l4.9437-2.8584c.5389-.3046.9841-1.1012.9841-1.7338z" fill="#333"/><path d="m33.0127 11.3753c0-.6326-.4452-1.42917-1.0075-1.73376l-7.1227-4.10023c-.5623-.32802-1.0075-.04686-1.0075.58574v8.17705c0 .6326.4452 1.4292 1.0075 1.7338l7.1227 4.1237c.5623.328 1.0075.0468 1.0075-.5858z" fill="gray"/><path d="m42.1269 14.3041c0 .6326-.4451 1.4292-1.0075 1.7338l-7.0992 4.1237c-.5623.328-1.0075.0468-1.0075-.5858v-8.2005c0-.6326.4452-1.42917 1.0075-1.73376l7.1227-4.10023c.5623-.32802 1.0075-.04686 1.0075.58574z" fill="#000"/><path d="m33.0127 38.9523c0-.6327-.4452-1.4293-1.0075-1.7339l-7.1227-4.1002c-.5623-.328-1.0075-.0469-1.0075.5858v8.2238c0 .6327.4452 1.4293 1.0075 1.7339l7.1227 4.1002c.5623.328 1.0075.0469 1.0075-.5858z" fill="gray"/><path d="m42.1269 41.881c0 .6326-.4452 1.4292-1.0075 1.7338l-7.1227 4.1002c-.5623.328-1.0074.0469-1.0074-.5857v-8.2239c0-.6326.4451-1.4292 1.0074-1.7338l7.1227-4.1003c.5623-.328 1.0075-.0468 1.0075.5858z" fill="#000"/></svg>